# xmcd
#
# Track frame offsets:
#	150
#	28005
#	46280
#	64380
#	77624
#	98506
#	119549
#
# Disc length: 1881 seconds
# Revision: 0
# Processed by: cddbd v1.5.2PL0 Copyright (c) Steve Scherf et al.
# Submitted via: dBpowerAMP V12.0
#
DISCID=54075707
DTITLE=Larry Keel - Experienced
DYEAR=2016
DGENRE=Country
TTITLE0=Ripchord
TTITLE1=Lil Miss
TTITLE2=Memories
TTITLE3=Fill 'em Up Again
TTITLE4=Miles and Miles
TTITLE5=The Warrior
TTITLE6=Another Summer Day
EXTD=
EXTT0=
EXTT1=
EXTT2=
EXTT3=
EXTT4=
EXTT5=
EXTT6=
PLAYORDER=
